Coordinates
version=1
nRows=8
nColumns=63
inDegrees=yes

Units are S.I. units (second, meters, Newtons, ...)
If the header above contains a line with 'inDegrees', this indicates whether rotational values are in degrees (yes) or radians (no).

endheader
time	pelvis_tilt	pelvis_list	pelvis_rotation	pelvis_tx	pelvis_ty	pelvis_tz	hip_flexion_r	hip_adduction_r	hip_rotation_r	knee_angle_r	knee_angle_r_beta	ankle_angle_r	subtalar_angle_r	mtp_angle_r	hip_flexion_l	hip_adduction_l	hip_rotation_l	knee_angle_l	knee_angle_l_beta	ankle_angle_l	subtalar_angle_l	mtp_angle_l	L5_S1_Flex_Ext	L5_S1_Lat_Bending	L5_S1_axial_rotation	L4_L5_Flex_Ext	L4_L5_Lat_Bending	L4_L5_axial_rotation	L3_L4_Flex_Ext	L3_L4_Lat_Bending	L3_L4_axial_rotation	L2_L3_Flex_Ext	L2_L3_Lat_Bending	L2_L3_axial_rotation	L1_L2_Flex_Ext	L1_L2_Lat_Bending	L1_L2_axial_rotation	L1_T12_Flex_Ext	L1_T12_Lat_Bending	L1_T12_axial_rotation	Abs_r3	Abs_r2	Abs_r1	Abs_t1	Abs_t2	neck_flexion	neck_bending	neck_rotation	arm_flex_r	arm_add_r	arm_rot_r	elbow_flex_r	pro_sup_r	wrist_flex_r	wrist_dev_r	arm_flex_l	arm_add_l	arm_rot_l	elbow_flex_l	pro_sup_l	wrist_flex_l	wrist_dev_l
      2.85000000	      8.43649799	     11.42978182	     98.97432135	      0.27947316	      0.70455434	      0.54079225	    -17.24440420	     11.13746454	     11.49939153	      1.09942272	      0.01918855	     26.70231007	    -15.69183749	      0.00000000	    -15.44944609	    -13.00467174	     10.24551585	      6.15193450	      0.10737151	     37.86158419	     -5.82652934	      0.00000000	     -0.66853427	      0.91522942	     -1.89214036	     -1.24153499	      1.21725513	     -2.01039913	     -1.09833495	      2.22528881	     -2.01039913	     -0.76406781	      2.22528881	     -1.65562281	     -0.62080092	      1.86633583	     -1.53736404	     -0.38200048	      1.41769037	     -1.41910527	     -4.77527341	     10.35325825	    -10.52351702	      0.00000000	      0.00000000	     25.87177084	      2.60621523	      3.41511826	      3.21240057	    -16.13112729	    128.75213922	      5.62382582	      3.01967448	     -6.65353281	     -7.28411942	     -2.16242592	    -15.77151310	     99.70776581	      6.31108808	     11.93575669	    -10.27068160	     -0.29004926
      2.86666667	      8.31831917	     11.43757354	     98.89494328	      0.27940366	      0.70485353	      0.53987475	    -17.30634715	     10.99286084	     11.44167724	      1.19413605	      0.02084161	     26.69840831	    -15.63292946	      0.00000000	    -15.79658391	    -12.85383580	     10.55405676	      5.60116274	      0.09775873	     37.62223345	     -6.06022207	      0.00000000	     -0.66147210	      0.89241704	     -1.83207894	     -1.22841985	      1.18691466	     -1.94658388	     -1.08673252	      2.16982278	     -1.94658388	     -0.75599647	      2.16982278	     -1.60306907	     -0.61424300	      1.81981682	     -1.48856414	     -0.37796516	      1.38235399	     -1.37405921	     -4.72482910	     10.09520001	    -10.18947345	      0.00000000	      0.00000000	     25.94234167	      2.72529009	      2.64412586	      3.30096444	    -16.10861833	    128.94182869	      5.89752413	      3.13862930	     -7.11031169	     -6.88286907	     -2.20490257	    -16.53175755	     99.87859093	      6.52462669	     12.62420375	    -10.80859046	     -0.38416956
      2.88333333	      8.26632554	     11.42386172	     98.83285463	      0.27950368	      0.70493821	      0.53889359	    -17.36141150	     10.94002457	     11.35121969	      1.29360263	      0.02257763	     26.56688640	    -15.63271378	      0.00000000	    -15.96969367	    -12.78187270	     10.75325951	      5.37932078	      0.09388686	     37.60992294	     -6.17076152	      0.00000000	     -0.65274232	      0.87409280	     -1.77067765	     -1.21220775	      1.16254343	     -1.88134500	     -1.07239035	      2.12526924	     -1.88134500	     -0.74601919	      2.12526924	     -1.54934294	     -0.60613651	      1.78245004	     -1.43867559	     -0.37297696	      1.35396975	     -1.32800823	     -4.66247308	      9.88791259	     -9.84797787	      0.00000000	      0.00000000	     26.06746350	      2.94566262	      2.16675631	      3.29918044	    -16.02363332	    129.24609262	      5.93507942	      3.32578155	     -7.17635559	     -6.67280997	     -2.22158645	    -17.32242696	     99.90830549	      6.74407010	     12.94537802	    -10.76526312	     -0.09149012
      2.90000000	      8.30104506	     11.42378464	     98.87368586	      0.27945958	      0.70489726	      0.53766035	    -17.44789255	     10.99975756	     11.33151725	      1.39583258	      0.02436187	     26.48505554	    -15.62230500	      0.00000000	    -16.06510484	    -12.83679517	     10.77251420	      5.35825511	      0.09351919	     37.56128884	     -6.20651472	      0.00000000	     -0.64076344	      0.86814757	     -1.74706305	     -1.18996179	      1.15463627	     -1.85625449	     -1.05271026	      2.11081401	     -1.85625449	     -0.73232854	      2.11081401	     -1.52868017	     -0.59501293	      1.77032653	     -1.41948873	     -0.36613223	      1.34476059	     -1.31029729	     -4.57690921	      9.82065898	     -9.71664057	      0.00000000	      0.00000000	     26.18736480	      2.98302225	      2.04505959	      3.24605568	    -15.97163447	    129.35447254	      5.97307045	      3.39831356	     -7.18293188	     -6.59748846	     -2.38638096	    -17.88681230	     99.89494936	      6.69241408	     12.99328282	    -10.77112253	      0.07095337
      2.91666667	      8.11859246	     11.44929769	     98.54084971	      0.27983405	      0.70499628	      0.53663028	    -17.48444111	     10.74868690	     11.37788320	      1.75775549	      0.03067862	     26.46562972	    -15.64902286	      0.00000000	    -16.62123545	    -12.49704074	     12.54353817	      4.70504725	      0.08211857	     36.50203795	     -9.14092161	      0.00000000	     -0.64840521	      0.82276327	     -1.62236901	     -1.20415332	      1.09427514	     -1.72376708	     -1.06526492	      2.00046661	     -1.72376708	     -0.74106232	      2.00046661	     -1.41957289	     -0.60210908	      1.67777885	     -1.31817482	     -0.37049874	      1.27446030	     -1.21677676	     -4.63149359	      9.30726262	     -9.02312974	      0.00000000	      0.00000000	     26.31188619	      3.11976992	      0.38834209	      3.14508713	    -15.28426476	    138.11617682	      4.39809630	      3.24540694	     -7.83595544	     -5.38368263	     -2.30490074	    -18.68577601	     97.21282595	      6.96793535	     16.10656471	    -10.64900775	      1.29978309
      2.93333333	      8.12217828	     11.38999839	     98.30547813	      0.27996841	      0.70492802	      0.53582424	    -17.33443698	     10.69600659	     11.32638256	      2.23877129	      0.03907393	     26.44981076	    -15.59844692	      0.00000000	    -16.78977325	    -12.41905863	     12.43527574	      4.49338301	      0.07842433	     36.33932038	     -9.43212912	      0.00000000	     -0.64075204	      0.80852176	     -1.54468445	     -1.18994061	      1.07533394	     -1.64122723	     -1.05269152	      1.96583980	     -1.64122723	     -0.73231550	      1.96583980	     -1.35159890	     -0.59500234	      1.64873757	     -1.25505612	     -0.36612571	      1.25240020	     -1.15851334	     -4.57682772	      9.14615984	     -8.59107152	      0.00000000	      0.00000000	     26.42066569	      3.19394399	     -0.36799723	      3.04482194	    -15.13376492	    138.39086065	      4.23346539	      3.47857488	     -7.65032041	     -4.97860164	     -2.26699553	    -19.20107621	     96.25843642	      7.13935803	     15.82669660	    -10.51941095	      2.05606749
      2.95000000	      8.30336219	     11.33411100	     97.70468127	      0.28014087	      0.70499197	      0.53523398	    -17.12704868	     10.70399616	     11.38786647	      2.82877621	      0.04937146	     26.46348548	    -15.32809806	      0.00000000	    -17.04504020	    -12.39524346	     12.25640674	      4.21717383	      0.07360357	     36.16501563	    -10.08468654	      0.00000000	     -0.63410427	      0.82147050	     -1.42963362	     -1.17759503	      1.09255577	     -1.51898572	     -1.04176990	      1.99732338	     -1.51898572	     -0.72471777	      1.99732338	     -1.25092942	     -0.58882922	      1.67514265	     -1.16157731	     -0.36232718	      1.27245781	     -1.07222521	     -4.52934336	      9.29263862	     -7.95119329	      0.00000000	      0.00000000	     26.49872778	      3.24739588	     -0.84332093	      3.02261615	    -15.12269979	    139.99600916	      3.97363517	      3.50614835	     -7.47253270	     -4.61149588	     -2.62971821	    -19.26982278	     89.42970892	      7.13339417	     19.70217198	    -10.50225876	      2.56872994
      2.96666667	      8.42745100	     11.25489035	     96.71147531	      0.28076976	      0.70517946	      0.53476662	    -16.77885350	     10.51306687	     10.59529220	      3.72572934	      0.06502624	     27.27873019	    -13.22448957	      0.00000000	    -17.41252578	    -12.23809152	     10.11431456	      3.82756740	      0.06680365	     36.47663463	     -8.60514452	      0.00000000	     -0.62388037	      0.83030424	     -1.25542504	     -1.15860823	      1.10430464	     -1.33388911	     -1.02497305	      2.01880173	     -1.33388911	     -0.71303287	      2.01880173	     -1.09849691	     -0.57933531	      1.69315640	     -1.02003285	     -0.35648524	      1.28614127	     -0.94156878	     -4.45631507	      9.39256762	     -6.98229745	      0.00000000	      0.00000000	     26.59626004	      3.35547806	     -1.18159766	      2.96002148	    -15.18930203	    138.47110331	      4.08042769	      3.61292979	     -6.89748548	     -4.23684870	     -2.84611626	    -19.30977842	     85.70003928	      7.21667881	     20.75151003	    -10.59778866	      3.06016455
